<svg xmlns="http://www.w3.org/2000/svg" viewBox="0 0 1024 1024" role="img" aria-labelledby="title desc">
  <title id="title">Fyr flame mark</title>
  <desc id="desc">A standalone flame symbol with fyr written inside.</desc>
  <defs>
    <radialGradient id="ember" cx="50%" cy="56%" r="62%">
      <stop offset="0%" stop-color="#ffef9a"/>
      <stop offset="36%" stop-color="#ff8a00"/>
      <stop offset="72%" stop-color="#ff3030"/>
      <stop offset="100%" stop-color="#5b0b16"/>
    </radialGradient>
    <linearGradient id="flame" x1="0.18" x2="0.85" y1="0.95" y2="0.06">
      <stop offset="0%" stop-color="#ff2424"/>
      <stop offset="42%" stop-color="#ff7a00"/>
      <stop offset="74%" stop-color="#ffd84d"/>
      <stop offset="100%" stop-color="#fff4bf"/>
    </linearGradient>
    <linearGradient id="inner" x1="0.3" x2="0.78" y1="0.9" y2="0.1">
      <stop offset="0%" stop-color="#ff3b1f"/>
      <stop offset="52%" stop-color="#ffbe2e"/>
      <stop offset="100%" stop-color="#fff7cc"/>
    </linearGradient>
    <filter id="glow" x="-35%" y="-35%" width="170%" height="170%">
      <feGaussianBlur stdDeviation="22" result="blur"/>
      <feColorMatrix in="blur" type="matrix" values="1 0 0 0 1  0 0.58 0 0 0.2  0 0 0.08 0 0  0 0 0 0.95 0" result="colored"/>
      <feMerge>
        <feMergeNode in="colored"/>
        <feMergeNode in="SourceGraphic"/>
      </feMerge>
    </filter>
    <filter id="shadow" x="-25%" y="-25%" width="150%" height="150%">
      <feDropShadow dx="0" dy="28" stdDeviation="26" flood-color="#000000" flood-opacity="0.45"/>
    </filter>
  </defs>

  <rect width="1024" height="1024" rx="180" fill="#080915"/>
  <circle cx="512" cy="574" r="336" fill="url(#ember)" opacity="0.18"/>

  <g filter="url(#shadow)">
    <path filter="url(#glow)" fill="url(#flame)" d="M518 74c74 91 84 168 59 237-13 36-4 68 34 100 78 66 126 145 119 238-10 141-120 237-254 237-148 0-270-99-270-243 0-98 59-171 119-241 74-86 155-163 193-328z"/>
    <path fill="url(#inner)" opacity="0.96" d="M512 320c44 58 45 107 20 151-15 27-6 53 24 79 42 38 67 81 63 134-5 75-65 125-139 125-81 0-148-55-148-134 0-54 32-94 68-138 43-53 82-104 112-217z"/>
  </g>

  <text x="512" y="646" text-anchor="middle" font-family="ui-monospace, SFMono-Regular, Menlo, Monaco, Consolas, monospace" font-size="206" font-weight="900" letter-spacing="-12" fill="#220409" opacity="0.86">fyr</text>
  <text x="512" y="632" text-anchor="middle" font-family="ui-monospace, SFMono-Regular, Menlo, Monaco, Consolas, monospace" font-size="206" font-weight="900" letter-spacing="-12" fill="#fff8e6">fyr</text>
</svg>
