<svg xmlns="http://www.w3.org/2000/svg" viewBox="0 0 1200 630" role="img" aria-labelledby="title desc">
  <title id="title">Fyr flame mark for the Phase1 native language</title>
  <desc id="desc">A neon fire flame with the word fyr written inside, designed for README and social posting.</desc>
  <defs>
    <linearGradient id="bg" x1="0" x2="1" y1="0" y2="1">
      <stop offset="0%" stop-color="#070816"/>
      <stop offset="55%" stop-color="#11152c"/>
      <stop offset="100%" stop-color="#05050d"/>
    </linearGradient>
    <linearGradient id="flame" x1="0.25" x2="0.85" y1="0.95" y2="0.05">
      <stop offset="0%" stop-color="#ff2e2e"/>
      <stop offset="38%" stop-color="#ff8a00"/>
      <stop offset="70%" stop-color="#ffe15a"/>
      <stop offset="100%" stop-color="#39ff88"/>
    </linearGradient>
    <linearGradient id="inner" x1="0" x2="1" y1="1" y2="0">
      <stop offset="0%" stop-color="#ff3b3b"/>
      <stop offset="45%" stop-color="#ffb000"/>
      <stop offset="100%" stop-color="#ffffff"/>
    </linearGradient>
    <filter id="glow" x="-30%" y="-30%" width="160%" height="160%">
      <feGaussianBlur stdDeviation="10" result="blur"/>
      <feColorMatrix in="blur" type="matrix" values="1 0 0 0 1  0 0.65 0 0 0.25  0 0 0.15 0 0  0 0 0 0.9 0" result="glow"/>
      <feMerge>
        <feMergeNode in="glow"/>
        <feMergeNode in="SourceGraphic"/>
      </feMerge>
    </filter>
    <filter id="softShadow" x="-20%" y="-20%" width="140%" height="140%">
      <feDropShadow dx="0" dy="14" stdDeviation="18" flood-color="#000000" flood-opacity="0.45"/>
    </filter>
  </defs>

  <rect width="1200" height="630" rx="44" fill="url(#bg)"/>
  <path d="M68 86h1064v458H68z" fill="none" stroke="#1879c8" stroke-width="5" opacity="0.75"/>
  <path d="M92 112h1016v410H92z" fill="none" stroke="#39ff88" stroke-width="2" opacity="0.16"/>

  <g filter="url(#softShadow)">
    <path filter="url(#glow)" fill="url(#flame)" d="M604 80c74 91 19 149 111 242 43 44 66 93 63 147-5 93-84 153-178 153-99 0-180-64-180-159 0-67 43-116 86-165 45-51 82-101 98-218z"/>
    <path fill="url(#inner)" opacity="0.92" d="M612 216c45 56 4 95 52 145 24 25 35 53 33 84-3 51-45 83-97 83-55 0-99-35-99-88 0-37 24-64 48-91 25-28 45-56 63-133z"/>
  </g>

  <text x="600" y="435" text-anchor="middle" font-family="ui-monospace, SFMono-Regular, Menlo, Monaco, Consolas, monospace" font-size="150" font-weight="900" letter-spacing="-10" fill="#070816">fyr</text>
  <text x="600" y="428" text-anchor="middle" font-family="ui-monospace, SFMono-Regular, Menlo, Monaco, Consolas, monospace" font-size="150" font-weight="900" letter-spacing="-10" fill="#ffffff">fyr</text>
  <text x="600" y="138" text-anchor="middle" font-family="ui-monospace, SFMono-Regular, Menlo, Monaco, Consolas, monospace" font-size="38" font-weight="800" fill="#39ff88">Phase1 Native Language</text>
  <text x="600" y="554" text-anchor="middle" font-family="ui-monospace, SFMono-Regular, Menlo, Monaco, Consolas, monospace" font-size="30" fill="#7fd7ff">C-shaped control · Rust-shaped safety · Python-shaped flow</text>
</svg>
