<svg xmlns="http://www.w3.org/2000/svg" viewBox="0 0 1024 1024" role="img" aria-labelledby="title desc">
  <title id="title">Phase1 Rainbow P Logo</title>
  <desc id="desc">A rainbow neon Phase1 app icon with a central futuristic P glyph and no text badge.</desc>
  <defs>
    <radialGradient id="bg" cx="50%" cy="45%" r="70%">
      <stop offset="0%" stop-color="#20224d"/>
      <stop offset="55%" stop-color="#0b1028"/>
      <stop offset="100%" stop-color="#040711"/>
    </radialGradient>
    <linearGradient id="rainbow" x1="7%" y1="10%" x2="94%" y2="90%">
      <stop offset="0%" stop-color="#ff375f"/>
      <stop offset="16%" stop-color="#ff9f0a"/>
      <stop offset="32%" stop-color="#ffd60a"/>
      <stop offset="48%" stop-color="#32d74b"/>
      <stop offset="64%" stop-color="#64d2ff"/>
      <stop offset="80%" stop-color="#0a84ff"/>
      <stop offset="100%" stop-color="#bf5af2"/>
    </linearGradient>
    <linearGradient id="glass" x1="20%" y1="0%" x2="80%" y2="100%">
      <stop offset="0%" stop-color="#ffffff" stop-opacity="0.28"/>
      <stop offset="45%" stop-color="#ffffff" stop-opacity="0.06"/>
      <stop offset="100%" stop-color="#ffffff" stop-opacity="0.16"/>
    </linearGradient>
    <filter id="glow" x="-35%" y="-35%" width="170%" height="170%">
      <feGaussianBlur stdDeviation="18" result="blur"/>
      <feColorMatrix in="blur" type="matrix" values="1 0 0 0 0.25  0 1 0 0 0.65  0 0 1 0 1  0 0 0 0.9 0" result="glow"/>
      <feMerge>
        <feMergeNode in="glow"/>
        <feMergeNode in="SourceGraphic"/>
      </feMerge>
    </filter>
    <filter id="softShadow" x="-20%" y="-20%" width="140%" height="140%">
      <feDropShadow dx="0" dy="22" stdDeviation="24" flood-color="#000" flood-opacity="0.5"/>
    </filter>
  </defs>

  <rect width="1024" height="1024" rx="224" fill="url(#bg)"/>
  <g opacity="0.22">
    <path d="M95 278h834M95 746h834M278 95v834M746 95v834" stroke="#64d2ff" stroke-width="4"/>
    <path d="M143 512h738M512 143v738" stroke="#bf5af2" stroke-width="3"/>
  </g>

  <g filter="url(#softShadow)">
    <circle cx="512" cy="512" r="342" fill="none" stroke="url(#rainbow)" stroke-width="38" filter="url(#glow)"/>
    <circle cx="512" cy="512" r="274" fill="#071022" stroke="#ffffff" stroke-opacity="0.12" stroke-width="3"/>
    <path d="M254 575c80-202 228-304 445-304 42 0 78 4 108 13" fill="none" stroke="url(#rainbow)" stroke-width="40" stroke-linecap="round" opacity="0.94"/>
    <path d="M249 579c70-65 148-98 233-98 92 0 168 38 228 113" fill="none" stroke="#ffffff" stroke-width="10" stroke-linecap="round" opacity="0.18"/>
  </g>

  <g transform="translate(184 252)" filter="url(#glow)">
    <path d="M110 134c0-40 32-72 72-72h292c98 0 178 80 178 178s-80 178-178 178H248v118H110V134z" fill="url(#rainbow)"/>
    <path d="M248 184v114h214c32 0 58-26 58-57s-26-57-58-57H248z" fill="#071022"/>
    <path d="M110 134c0-40 32-72 72-72h292c98 0 178 80 178 178s-80 178-178 178H248v118H110V134z" fill="url(#glass)"/>
  </g>

  <g opacity="0.75">
    <circle cx="223" cy="233" r="8" fill="#ff375f"/>
    <circle cx="801" cy="234" r="8" fill="#ffd60a"/>
    <circle cx="221" cy="795" r="8" fill="#64d2ff"/>
    <circle cx="803" cy="795" r="8" fill="#bf5af2"/>
  </g>
</svg>
